<?xml version="1.0" encoding="UTF-8" standalone="no"?>
<!-- Created with Inkscape (http://www.inkscape.org/) -->

<svg
   xmlns:dc="http://purl.org/dc/elements/1.1/"
   xmlns:cc="http://creativecommons.org/ns#"
   xmlns:rdf="http://www.w3.org/1999/02/22-rdf-syntax-ns#"
   xmlns:svg="http://www.w3.org/2000/svg"
   xmlns="http://www.w3.org/2000/svg"
   xmlns:xlink="http://www.w3.org/1999/xlink"
   xmlns:sodipodi="http://sodipodi.sourceforge.net/DTD/sodipodi-0.dtd"
   xmlns:inkscape="http://www.inkscape.org/namespaces/inkscape"
   width="24"
   height="24"
   id="svg2"
   sodipodi:version="0.32"
   inkscape:version="0.92.2 5c3e80d, 2017-08-06"
   version="1.0"
   sodipodi:docname="24.svg"
   inkscape:output_extension="org.inkscape.output.svg.inkscape">
  <defs
     id="defs4">
    <linearGradient
       inkscape:collect="always"
       id="linearGradient1140">
      <stop
         style="stop-color:#ffffff;stop-opacity:1;"
         offset="0"
         id="stop1136" />
      <stop
         style="stop-color:#ffffff;stop-opacity:0;"
         offset="1"
         id="stop1138" />
    </linearGradient>
    <linearGradient
       id="linearGradient8838"
       inkscape:collect="always">
      <stop
         id="stop8840"
         offset="0"
         style="stop-color:#000000;stop-opacity:1;" />
      <stop
         id="stop8842"
         offset="1"
         style="stop-color:#000000;stop-opacity:0;" />
    </linearGradient>
    <radialGradient
       inkscape:collect="always"
       xlink:href="#linearGradient8838"
       id="radialGradient3868"
       gradientUnits="userSpaceOnUse"
       gradientTransform="matrix(1,0,0,0.341176,0,3.047059)"
       cx="62.625"
       cy="4.625"
       fx="62.625"
       fy="4.625"
       r="10.625" />
    <radialGradient
       inkscape:collect="always"
       xlink:href="#linearGradient2867-449-88-871-390-598-476-591-434-148-6"
       id="radialGradient6407"
       cx="12.465816"
       cy="5.3052077"
       fx="12.465816"
       fy="5.3052077"
       r="10.499999"
       gradientTransform="matrix(1.3575161,-1.1158391e-8,1.248724e-8,1.5191822,-4.456729,-2.7543707)"
       gradientUnits="userSpaceOnUse" />
    <linearGradient
       inkscape:collect="always"
       id="linearGradient4873">
      <stop
         style="stop-color:#ffffff;stop-opacity:1;"
         offset="0"
         id="stop4875" />
      <stop
         style="stop-color:#ffffff;stop-opacity:0;"
         offset="1"
         id="stop4877" />
    </linearGradient>
    <linearGradient
       inkscape:collect="always"
       xlink:href="#linearGradient4873"
       id="linearGradient5158"
       gradientUnits="userSpaceOnUse"
       gradientTransform="matrix(1.0299253,0,0,1.0299249,-51.595947,15.115898)"
       x1="63.397362"
       y1="-12.742159"
       x2="63.397362"
       y2="-0.62969548" />
    <linearGradient
       id="linearGradient2867-449-88-871-390-598-476-591-434-148-6">
      <stop
         offset="0"
         style="stop-color:#e29ffc;stop-opacity:1"
         id="stop4627" />
      <stop
         offset="0.26238"
         style="stop-color:#ad65d6;stop-opacity:1"
         id="stop4629" />
      <stop
         offset="0.704952"
         style="stop-color:#4c158a;stop-opacity:0.94618833"
         id="stop4631" />
      <stop
         offset="1"
         style="stop-color:#273567;stop-opacity:1"
         id="stop4633" />
    </linearGradient>
    <clipPath
       id="clipPath1093-6-9-2"
       clipPathUnits="userSpaceOnUse">
      <path
         inkscape:connector-curvature="0"
         style="opacity:1;fill:#000000;fill-opacity:1;stroke:none;stroke-width:1.00000095;stroke-miterlimit:4;stroke-dasharray:none;stroke-opacity:1"
         id="path1095-2-2-9"
         d="m 284.57939,38.359911 c 0,27.240157 -21.76826,49.322717 -48.61652,49.322717 -26.85073,0 -48.6177,-22.082814 -48.6177,-49.322717 0,-27.238891 21.76697,-49.319315 48.6177,-49.319315 26.84826,0 48.61652,22.080424 48.61652,49.319315 z" />
    </clipPath>
    <radialGradient
       inkscape:collect="always"
       xlink:href="#linearGradient1140"
       id="radialGradient1142"
       cx="233.66495"
       cy="38.361612"
       fx="233.66495"
       fy="38.361612"
       r="46.319775"
       gradientTransform="matrix(1,0,0,1.0647939,0,-2.4856002)"
       gradientUnits="userSpaceOnUse" />
  </defs>
  <sodipodi:namedview
     id="base"
     pagecolor="#ffffff"
     bordercolor="#666666"
     borderopacity="1.0"
     gridtolerance="10000"
     guidetolerance="10"
     objecttolerance="10"
     inkscape:pageopacity="0.0"
     inkscape:pageshadow="2"
     inkscape:zoom="0.6484375"
     inkscape:cx="-83.727223"
     inkscape:cy="146.35163"
     inkscape:document-units="px"
     inkscape:current-layer="layer1"
     showgrid="false"
     inkscape:window-width="1366"
     inkscape:window-height="744"
     inkscape:window-x="0"
     inkscape:window-y="24"
     inkscape:window-maximized="1" />
  <metadata
     id="metadata7">
    <rdf:RDF>
      <cc:Work
         rdf:about="">
        <dc:format>image/svg+xml</dc:format>
        <dc:type
           rdf:resource="http://purl.org/dc/dcmitype/StillImage" />
      </cc:Work>
    </rdf:RDF>
  </metadata>
  <g
     inkscape:label="Layer 1"
     inkscape:groupmode="layer"
     id="layer1">
    <path
       transform="matrix(1.0823528,0,0,1.2906765,-55.816527,13.351919)"
       d="M 73.25,4.625 A 10.625,3.625 0 1 1 52,4.625 A 10.625,3.625 0 1 1 73.25,4.625 z"
       sodipodi:ry="3.625"
       sodipodi:rx="10.625"
       sodipodi:cy="4.625"
       sodipodi:cx="62.625"
       id="path2774"
       style="opacity:0.56043958000000005;fill:url(#radialGradient3868);fill-opacity:1;fill-rule:evenodd;stroke:none;stroke-width:0.99999987999999995;stroke-linecap:butt;stroke-linejoin:round;marker:none;marker-start:none;marker-mid:none;marker-end:none;stroke-miterlimit:4;stroke-dasharray:none;stroke-dashoffset:0;stroke-opacity:1;visibility:visible;display:inline;overflow:visible"
       sodipodi:type="arc" />
    <path
       style="fill:url(#radialGradient6407);fill-opacity:1;stroke:#542087;stroke-width:0.99994898;stroke-linecap:round;stroke-linejoin:round;stroke-miterlimit:4;stroke-dasharray:none;stroke-dashoffset:0;stroke-opacity:1"
       d="M 12.457962,1.499974 C 6.9388938,1.499974 2.4657908,5.973075 2.4657908,11.492145 C 2.4657908,17.011214 6.9388938,21.500027 12.457962,21.500026 C 17.97703,21.500026 22.46585,17.011214 22.46584,11.492145 C 22.46584,5.973075 17.97703,1.499974 12.457962,1.499974 z"
       id="path2555" />
    <path
       id="path6566"
       style="fill:#000000;fill-opacity:1;fill-rule:nonzero;stroke:none;stroke-width:1.00806236;stroke-miterlimit:4;opacity:0.4"
       d="M 9.0535187,13.689733 L 8.7731331,13.134605 L 8.2478683,13.015803 L 7.9677239,12.263058 L 7.2674355,12.342114 L 6.6722669,11.906461 L 6.0415926,12.461156 L 6.0415926,12.548643 C 5.850815,12.493578 5.6162937,12.486063 5.4464245,12.381618 L 5.3062315,11.985469 L 5.3062315,11.549335 L 4.8860876,11.588838 C 4.9211597,11.31125 4.9559427,11.034143 4.991256,10.756603 L 4.7458947,10.756603 L 4.5010153,11.073696 L 4.255654,11.192256 L 3.9053651,10.994639 L 3.8702929,10.558505 L 3.9403892,10.082866 L 4.4658949,9.6867169 L 4.8860394,9.6867169 L 4.9558945,9.4486807 L 5.4811593,9.5672408 L 5.8664722,10.043361 L 5.9365685,9.2501483 L 6.6020263,8.6954532 L 6.8471467,8.1007726 L 7.3373869,7.902722 L 7.6175313,7.5065731 L 8.2477239,7.3870971 L 8.5631817,6.91194 C 8.2479651,6.91194 7.9327479,6.91194 7.6175313,6.91194 L 8.2128923,6.6343519 L 8.6327962,6.6343519 L 9.2283979,6.4358195 L 9.2984941,6.1986987 L 9.0882053,6.0001669 L 8.843085,5.9206769 L 8.9131812,5.6830743 L 8.7381571,5.3264775 L 8.3177721,5.484542 L 8.3878683,5.1676906 L 7.8976276,4.8901019 L 7.5125559,5.5635502 L 7.5473869,5.8015864 L 7.1623152,5.9606144 L 6.9169537,6.4757575 L 6.8120258,6.0001187 L 6.1465685,5.7225301 L 6.0414001,5.3659337 L 6.9169537,4.8503088 L 7.3022666,4.4937119 L 7.3373387,4.0578184 L 7.1272911,3.9387764 L 6.8471467,3.8990314 L 6.6721226,4.3351657 C 6.6721226,4.3351657 6.3792596,4.3925434 6.3039603,4.411139 C 5.3423158,5.2972828 3.3992745,7.2101963 2.9478638,10.821496 C 2.9657372,10.905225 3.2750764,11.39074 3.2750764,11.39074 L 4.0104373,11.826393 L 4.7457984,12.024925 L 5.061256,12.421508 L 5.5512556,12.778104 L 5.8314,12.7386 L 6.0414482,12.833169 L 6.0414482,12.897146 L 5.7614963,13.650133 L 5.5512075,13.967225 L 5.6213037,14.126253 L 5.4462796,14.719971 L 6.0767134,15.86978 L 6.7069055,16.424909 L 6.9872911,16.821058 L 6.9520259,17.653775 L 7.1623152,18.128932 L 6.9520259,19.040706 C 6.9520259,19.040706 6.9355495,19.035069 6.9623838,19.126314 C 6.9894587,19.217607 8.0844549,19.82544 8.1540694,19.7737 C 8.2234433,19.720995 8.282748,19.674891 8.282748,19.674891 L 8.2128923,19.477274 L 8.4928443,19.199686 L 8.5980127,18.922097 L 9.0534224,18.763069 L 9.4034701,17.890848 L 9.2985428,17.653727 L 9.5431808,17.29713 L 10.068687,17.177655 L 10.349072,16.54347 L 10.278976,15.75122 L 10.69912,15.156539 L 10.769216,14.561858 C 10.194282,14.276754 9.6240687,13.983172 9.0534224,13.689637M 13.625351,2.4984438 L 12.603128,2.0979608 L 11.424593,2.2312929 L 9.9699293,2.6315055 L 9.6948279,2.8986564 L 10.598802,3.5211973 L 10.598802,3.877074 L 10.245031,4.2329507 L 10.71705,5.1677885 L 11.030703,4.9893094 L 11.424593,4.3667691 C 12.031784,4.1790447 12.576202,3.9662864 13.153331,3.6993519 L 13.625351,2.4983897M 21.830149,10.036416 C 21.830149,10.166825 21.830149,10.036416 21.830149,10.036416 L 21.559649,10.342805 C 21.393843,10.147415 21.207685,9.9831006 21.018647,9.8114887 L 20.603687,9.8725485 L 20.224569,9.4439906 L 20.224569,9.9743637 L 20.549378,10.22014 L 20.765571,10.464974 L 21.054489,10.138231 C 21.127214,10.274449 21.198948,10.410666 21.271177,10.546883 L 21.271177,10.955088 L 20.945871,11.322536 L 20.350561,11.731188 L 19.899709,12.181092 L 19.610791,11.853356 L 19.75525,11.485908 L 19.466779,11.159165 L 18.97959,10.117829 L 18.56463,9.6485646 L 18.456012,9.7707332 L 18.618889,10.363159 L 18.925281,10.710254 C 19.10027,11.215409 19.273373,11.698226 19.503167,12.181092 C 19.859499,12.181092 20.195429,12.143265 20.549328,12.098686 L 20.549328,12.384723 L 20.116398,13.446661 L 19.719359,13.895572 L 19.394549,14.590755 C 19.394549,14.971806 19.394549,15.352857 19.394549,15.733858 L 19.503167,16.183762 L 19.322817,16.387393 L 18.925281,16.632673 L 18.510321,16.979768 L 18.853548,17.36762 L 18.384279,17.776768 L 18.47443,18.041458 L 17.770502,18.838458 L 17.30173,18.838458 L 16.904691,19.083738 L 16.651615,19.083738 L 16.651615,18.756996 L 16.54399,18.102518 C 16.404346,17.692377 16.258944,17.285165 16.111059,16.877953 C 16.111059,16.577372 16.12898,16.27972 16.14695,15.979188 L 16.327798,15.570983 L 16.074721,15.080373 L 16.093139,14.406535 L 15.749912,14.018683 L 15.921525,13.457284 L 15.642287,13.14047 L 15.154601,13.14047 L 14.992221,12.956746 L 14.505032,13.263383 L 14.306761,13.038207 L 13.855413,13.426258 C 13.549021,13.078914 13.242132,12.731818 12.935293,12.384723 L 12.574592,11.526664 L 12.899402,11.037047 L 12.719051,10.832969 L 13.115594,9.8929511 C 13.441396,9.4876756 13.781694,9.0988805 14.125913,8.7086462 L 14.739641,8.5452749 L 15.425152,8.4638126 L 15.894421,8.5864776 L 16.561961,9.2598193 L 16.796619,8.9946328 L 17.120932,8.9539265 L 17.73466,9.1580041 L 18.203929,9.1580041 L 18.528739,8.8719678 L 18.673198,8.6678902 L 18.347891,8.4638126 L 17.806393,8.4231063 C 17.656126,8.2146605 17.516483,7.9955411 17.338068,7.8103279 L 17.157221,7.8917897 L 17.084991,8.4231063 L 16.760182,8.0556574 L 16.688449,7.6465095 L 16.327748,7.3614664 L 16.182793,7.3614664 L 16.54394,7.7696708 L 16.399481,8.1371197 L 16.11101,8.2185821 L 16.29136,7.8511332 L 15.966054,7.6882582 L 15.678079,7.3615161 L 15.136085,7.4836843 L 15.064352,7.6465592 L 14.739542,7.8511332 L 14.559192,8.3005408 L 14.10834,8.5249712 L 13.909573,8.3005408 L 13.69338,8.3005408 L 13.69338,7.5651466 L 14.162649,7.3198664 L 14.52335,7.3198664 L 14.450624,7.0343269 L 14.162649,6.7482906 L 14.649392,6.6459785 L 14.919893,6.3400857 L 15.136085,5.9721404 L 15.53362,5.9721404 L 15.425003,5.686601 L 15.678079,5.5232297 L 15.678079,5.8499718 L 16.219081,5.9721404 L 16.760083,5.5232297 L 16.796421,5.3186558 L 17.265193,4.9921613 C 17.095516,5.0132593 16.925838,5.0287471 16.760033,5.0738719 L 16.760033,4.7059764 L 16.940383,4.2975232 L 16.760033,4.2975232 L 16.363689,4.6649721 L 16.255072,4.8692979 L 16.363689,5.1555824 L 16.182842,5.6451994 L 15.894371,5.4818281 L 15.642287,5.1962887 L 15.244752,5.4818281 L 15.100293,4.8285916 L 15.785803,4.3794322 L 15.785803,4.1341517 L 16.21918,3.8483638 L 16.904691,3.6847443 L 17.373959,3.8483638 L 18.239771,4.0117351 L 18.023578,4.2565688 L 17.55431,4.2565688 L 18.023578,4.7466827 L 18.384279,4.3384777 L 18.49384,4.1588733 C 18.49384,4.1588733 19.87742,5.3989265 20.668123,6.7553892 C 21.458825,8.1122992 21.830149,9.7116097 21.830149,10.036416 z" />
    <path
       style="opacity:0.40000000000000002;fill:none;fill-opacity:1;fill-rule:nonzero;stroke:url(#linearGradient5158);stroke-width:1;stroke-miterlimit:4;stroke-dasharray:none;stroke-opacity:1"
       d="M 21.473026,11.49968 C 21.473026,16.474499 17.440065,20.507415 12.465928,20.507415 C 7.4913391,20.507415 3.4586051,16.474454 3.4586051,11.49968 C 3.4586051,6.5250919 7.4913391,2.4925846 12.465928,2.4925846 C 17.440065,2.4925846 21.473026,6.5250919 21.473026,11.49968 L 21.473026,11.49968 z"
       id="path8655" />
    <g
       clip-path="url(#clipPath1093-6-9-2)"
       style="opacity:0.714;fill:url(#radialGradient1142);fill-opacity:1;stroke:none;stroke-width:5.44129801;stroke-opacity:1"
       transform="matrix(-0.18462162,0,0,-0.18294161,55.814583,18.408364)"
       id="g1048-9-0">
      <path
         style="fill:url(#radialGradient1142);fill-opacity:1;stroke:none;stroke-width:5.44129801;stroke-linecap:round;stroke-linejoin:round;stroke-opacity:1;paint-order:stroke fill markers"
         d="m 182.90279,25.861483 c 2.27001,11.278071 10.09164,15.346789 17.72959,24.080289 7.86423,8.992223 16.48386,11.773579 28.25427,9.116983 -10.76219,-2.470231 -18.13711,-10.937621 -21.24079,-18.098687 -2.70205,-6.234374 -10.4533,-38.8810968 3.03439,-60.710079 h 37.48727 25.99999 c -10.87784,0.8175 -15.69358,8.066406 -24.87646,14.5362769 -2.35518,1.866961 -4.68966,1.7573965 1.61031,2.5828165 4.45176,0.58326 9.07543,1.65396996 8.49468,1.96713996 -0.23125,0.12476 -1.49703,0.32251 -2.81284,0.43956 -5.3141,0.47276 -13.12774,2.21326004 -17.98295,4.00573004 -12.39345,4.575491 -17.47247,7.5945506 -21.12895,18.3450506 -0.38813,1.14114 -0.65143,2.0748 -0.58512,2.0748 2.71331,-4.1155 6.54206,-6.98351 9.75968,-8.2413 8,-4 31.53553,-8.5303296 41.53553,7.46967 5.29999,8.479988 11.75635,31.37208 11.80333,64.963692 0,0 -0.93263,3.29845 -3.46984,4.51202 -1.5429,0.73798 -4.26532,0.73798 -4.26532,0.73798 -10.80051,0 -31.82148,-0.0576 -31.75112,-0.12798 9.22902,-6.30758 20.17142,-17.772264 21.93476,-26.653204 0.73237,-3.928904 1.16192,-14.145 0.53829,-12.80204 -2.60645,5.612738 -3.7134,7.749209 -5.01277,9.674781 -0.84879,1.257845 -1.59837,2.287009 -1.66575,2.287009 -0.0674,0 0.40099,-1.467491 1.04081,-3.261086 1.57154,-4.405546 2.1865,-7.800489 2.17187,-11.990197 -0.0153,-4.29473 -0.69951,-7.07789 -2.75815,-11.214192 -5.00731,-10.060863 -13.15103,-14.630463 -21.0967,-11.837783 -4.27047,1.50095 -8.23416,4.852714 -9.40166,7.950205 -1.33626,3.545206 -0.79778,7.540175 1.41079,10.466564 3.14995,4.173746 8.66097,5.481985 13.35613,3.170574 5.45832,-2.687128 7.58739,-9.211441 4.79175,-14.683793 -0.67824,-1.327625 -2.71316,-3.848291 -3.87779,-4.487741 -0.34014,-0.18674 -0.4235,-0.33229 -0.19326,-0.33746 0.37522,-0.121207 1.33838,0.830081 2.47938,1.429661 4.14615,2.178747 7.39904,6.831153 8.96033,12.815449 1.26493,5.620362 1.07211,12.496266 -2.22819,15.942601 -13.27839,14.951258 -23.20978,19.505727 -44.17933,17.546737 -3.0012,-0.29505 -10.51899,-1.59818 -10.79137,-1.870561 -0.0641,-0.0641 2.07385,-0.1912 4.75081,-0.28264 4.92424,-0.1682 8.16982,-0.61529 12.79189,-1.76207 3.52095,-0.87358 3.68711,-1.03548 1.31299,-1.27934 -8.38807,-0.861598 -39.21729,-3.600413 -35.8943,-10.991975 l 0.0268,-1.161261 v -33 l -0.1327,-27.10914071 c 2.1327,18.10914071 3.32056,21.35189071 4.06971,25.78694071 z"
         id="path927-3-1-2"
         inkscape:connector-curvature="0"
         sodipodi:nodetypes="cscsccccsccscccscssccscsscssssssccscccsssssccccc" />
    </g>
  </g>
</svg>
