<?xml version="1.0" encoding="UTF-8" standalone="no"?>
<!-- Created with Inkscape (http://www.inkscape.org/) -->

<svg
   xmlns:dc="http://purl.org/dc/elements/1.1/"
   xmlns:cc="http://creativecommons.org/ns#"
   xmlns:rdf="http://www.w3.org/1999/02/22-rdf-syntax-ns#"
   xmlns:svg="http://www.w3.org/2000/svg"
   xmlns="http://www.w3.org/2000/svg"
   xmlns:xlink="http://www.w3.org/1999/xlink"
   xmlns:sodipodi="http://sodipodi.sourceforge.net/DTD/sodipodi-0.dtd"
   xmlns:inkscape="http://www.inkscape.org/namespaces/inkscape"
   width="16px"
   height="16px"
   id="svg2555"
   sodipodi:version="0.32"
   inkscape:version="0.92.2 5c3e80d, 2017-08-06"
   sodipodi:docname="com.github.bleakgrey.transporter.svg"
   inkscape:output_extension="org.inkscape.output.svg.inkscape"
   version="1.1">
  <defs
     id="defs2557">
    <radialGradient
       cx="61.240059"
       cy="-8.7256308"
       r="9.7552834"
       fx="61.240059"
       fy="-8.7256308"
       id="radialGradient2481"
       xlink:href="#linearGradient2867-449-88-871-390-598-476-591-434-148-6"
       gradientUnits="userSpaceOnUse"
       gradientTransform="matrix(0,1.3551574,-1.3551567,0,-3.824604,-80.384092)" />
    <linearGradient
       x1="20"
       y1="43"
       x2="20"
       y2="2.6887112"
       id="linearGradient2483"
       xlink:href="#linearGradient3707-319-631"
       gradientUnits="userSpaceOnUse"
       gradientTransform="matrix(0.3769285,0,0,0.3769199,-1.196178,-0.8960149)" />
    <linearGradient
       id="linearGradient3707-319-631">
      <stop
         id="stop4637"
         style="stop-color:#50256d;stop-opacity:1"
         offset="0" />
      <stop
         id="stop4639"
         style="stop-color:#674173;stop-opacity:1"
         offset="0.5" />
      <stop
         id="stop4641"
         style="stop-color:#af61b5;stop-opacity:1"
         offset="1" />
    </linearGradient>
    <linearGradient
       id="linearGradient4873">
      <stop
         id="stop4875"
         style="stop-color:#ffffff;stop-opacity:1"
         offset="0" />
      <stop
         id="stop4877"
         style="stop-color:#ffffff;stop-opacity:0"
         offset="1" />
    </linearGradient>
    <linearGradient
       y2="5.4675598"
       x2="63.397362"
       y1="-12.489107"
       x1="63.397362"
       gradientTransform="matrix(0.7432394,0,0,0.7432224,-38.229789,10.609333)"
       gradientUnits="userSpaceOnUse"
       id="linearGradient3029"
       xlink:href="#linearGradient4873"
       inkscape:collect="always" />
    <linearGradient
       id="linearGradient2867-449-88-871-390-598-476-591-434-148-6">
      <stop
         offset="0"
         style="stop-color:#e29ffc;stop-opacity:1"
         id="stop4627-7" />
      <stop
         offset="0.26238"
         style="stop-color:#ad65d6;stop-opacity:1"
         id="stop4629-5" />
      <stop
         offset="0.704952"
         style="stop-color:#4c158a;stop-opacity:0.94618833"
         id="stop4631-3" />
      <stop
         offset="1"
         style="stop-color:#273567;stop-opacity:1"
         id="stop4633-5" />
    </linearGradient>
    <clipPath
       id="clipPath1093-6-9-0-8"
       clipPathUnits="userSpaceOnUse">
      <path
         inkscape:connector-curvature="0"
         style="opacity:1;fill:#000000;fill-opacity:1;stroke:none;stroke-width:1.00000095;stroke-miterlimit:4;stroke-dasharray:none;stroke-opacity:1"
         id="path1095-2-2-6-7"
         d="m 284.57939,38.359911 c 0,27.240157 -21.76826,49.322717 -48.61652,49.322717 -26.85073,0 -48.6177,-22.082814 -48.6177,-49.322717 0,-27.238891 21.76697,-49.319315 48.6177,-49.319315 26.84826,0 48.61652,22.080424 48.61652,49.319315 z" />
    </clipPath>
  </defs>
  <sodipodi:namedview
     id="base"
     pagecolor="#ffffff"
     bordercolor="#666666"
     borderopacity="1.0"
     inkscape:pageopacity="0.0"
     inkscape:pageshadow="2"
     inkscape:zoom="0.98101352"
     inkscape:cx="-34.295503"
     inkscape:cy="97.144778"
     inkscape:current-layer="layer1"
     showgrid="true"
     inkscape:grid-bbox="true"
     inkscape:document-units="px"
     inkscape:window-width="1366"
     inkscape:window-height="744"
     inkscape:window-x="0"
     inkscape:window-y="24"
     inkscape:window-maximized="1" />
  <metadata
     id="metadata2560">
    <rdf:RDF>
      <cc:Work
         rdf:about="">
        <dc:format>image/svg+xml</dc:format>
        <dc:type
           rdf:resource="http://purl.org/dc/dcmitype/StillImage" />
        <dc:title />
      </cc:Work>
    </rdf:RDF>
  </metadata>
  <g
     id="layer1"
     inkscape:label="Layer 1"
     inkscape:groupmode="layer">
    <g
       id="layer1-3">
      <path
         inkscape:connector-curvature="0"
         d="M 15.5,7.999735 C 15.5,12.142003 12.141888,15.5 8.000094,15.5 3.857922,15.5 0.5,12.141965 0.5,7.999735 0.5,3.8576552 3.857922,0.4999997 8.000094,0.4999997 12.141888,0.4999997 15.5,3.8576552 15.5,7.999735 l 0,0 z"
         id="path6495"
         style="fill:url(#radialGradient2481);fill-opacity:1.0;fill-rule:nonzero;stroke:url(#linearGradient2483);stroke-width:0.99999994;stroke-miterlimit:4;stroke-dasharray:none" />
      <path
         inkscape:connector-curvature="0"
         d="M 8.1022062,0.95621712 7.236144,1.0568701 6.2834735,1.3210847 C 6.3646244,1.2921995 6.446834,1.2606694 6.5309208,1.2330132 L 6.4195696,1.0317069 6.048401,1.0946151 5.8628152,1.2707582 5.5782512,1.3085031 5.318433,1.4343196 5.1947098,1.4972277 5.157592,1.5475543 4.9720082,1.5852992 4.8606579,1.8243504 4.712189,1.522391 4.662699,1.6482076 4.687446,1.9879118 4.4523726,2.1892181 4.3162764,2.5540857 l 0.2845641,0 0.1113503,-0.2390512 0.037118,-0.088071 C 4.8744282,2.136984 4.9930427,2.0367771 5.1204782,1.9501669 L 5.4174142,2.05082 C 5.6107409,2.1843878 5.8054259,2.3200676 5.9989133,2.4534326 L 6.2834735,2.1892181 5.9617936,2.05082 5.8133266,1.7488605 5.2689442,1.6859524 5.2565714,1.6230443 5.4916438,1.6733709 5.6277409,1.5349726 5.9246759,1.4720643 C 5.9949454,1.4373108 6.06407,1.4122795 6.1350055,1.3839929 l -0.1855848,0.1761431 0.6681055,0.4655208 0,0.2767962 L 6.357707,2.5666673 6.7041325,3.2712399 6.9392071,3.1328408 7.2361431,2.6673207 C 7.6536127,2.5360677 8.0298636,2.383337 8.423888,2.2017997 L 8.3991411,2.3779426 8.5970969,2.5163408 8.9435226,2.2772895 8.7703107,2.0759833 8.5352353,2.2143814 8.4610018,2.1892185 c 0.017052,-0.00792 0.032364,-0.017109 0.04949,-0.025163 L 8.8569181,1.2581766 8.1022062,0.95621712 z M 4.712189,2.3150345 l 0.2845631,0.2013063 0.2350744,0 0,-0.2390513 -0.2845631,-0.1258162 -0.2350744,0.1635612 0,0 z m 6.569706,-0.1635612 -0.507267,0.1258162 -0.321677,0.2138881 0,0.1887243 -0.5072681,0.3271224 0.098978,0.4906852 0.296936,-0.2138887 0.185586,0.2138887 0.210331,0.1258164 0.136094,-0.3648684 -0.07423,-0.2138876 0.07423,-0.1509803 0.296936,-0.2767955 0.136096,0 -0.136096,0.3019602 0,0.2767953 c 0.122388,-0.033878 0.245923,-0.047072 0.371169,-0.062909 l -0.346425,0.2516338 -0.02474,0.1509791 -0.395915,0.3397051 -0.408287,-0.1006539 0,-0.2390512 -0.185585,0.1258166 0.08661,0.2138885 -0.2969379,0 -0.1608399,0.276796 -0.1979568,0.2264696 -0.3587976,0.075489 0.2103296,0.213888 0.049489,0.2138881 -0.2598183,0 -0.3464256,0.1887243 0,0.5535916 0.160839,0 0.148469,0.1635617 L 9.5497754,5.6240052 9.6734977,5.2843006 9.920944,5.1333211 9.970434,5.007505 l 0.395915,-0.1006531 0.222701,0.2516328 0.235075,0.1258159 -0.136096,0.2767966 0.21033,-0.062908 0.11135,-0.2767966 -0.272189,-0.3145408 0.11135,0 0.272192,0.2264692 0.04949,0.3019603 0.235072,0.276796 0.06186,-0.4026124 0.123723,-0.062909 c 0.131695,0.1390299 0.235504,0.3090531 0.346424,0.4655215 l 0.408287,0.025165 0.235074,0.1509801 -0.11135,0.1635607 -0.235073,0.2138886 -0.346429,0 L 11.430361,6.1146942 11.195287,6.1398593 11.022074,6.3411657 10.527181,5.8378996 10.180756,5.7372462 9.6734907,5.8001547 9.2280866,5.9259711 C 8.974001,6.2188978 8.7138634,6.5150518 8.4733747,6.8192683 L 8.1888107,7.5238405 8.3249076,7.6748196 8.0774604,8.0396877 8.3496515,8.6813514 C 8.5761437,8.9418962 8.8039678,9.2006825 9.030129,9.461412 l 0.3340537,-0.2893772 0.1360951,0.1761447 0.3587986,-0.2390518 0.1237209,0.1383971 0.3587977,0 0.210332,0.2390509 -0.123724,0.4277763 0.247446,0.289379 -0.01237,0.503264 0.185586,0.364869 -0.136095,0.314541 c -0.01327,0.225592 -0.02475,0.4412 -0.02475,0.666826 0.10916,0.305671 0.218601,0.610592 0.32168,0.918462 l 0.07423,0.490682 0,0.251634 0.197957,0 0.284562,-0.188726 0.346427,0 0.519637,-0.591336 -0.06186,-0.201308 0.346427,-0.314538 -0.259821,-0.289379 0.309308,-0.251633 0.296936,-0.188725 0.136096,-0.15098 -0.08661,-0.339704 c 0,-0.285996 10e-7,-0.569519 0,-0.855553 L 13.348063,9.8136993 13.645,9.4865757 l 0.321679,-0.8052243 0,-0.2138884 C 13.806601,8.487969 13.653165,8.506459 13.496531,8.51779 l 0.321681,-0.3271227 0.445403,-0.30196 0.235075,-0.2767953 0,-0.3019591 C 14.445379,7.2077028 14.391536,7.0976601 14.337854,6.9954116 l -0.210329,0.2516315 -0.16084,-0.1887234 -0.235076,-0.1887233 0,-0.3900316 0.272193,0.3145399 0.309309,-0.037745 c 0.139537,0.1288198 0.273525,0.2433636 0.395913,0.3900326 l 0.197962,-0.2264767 c 0,-0.2438137 -0.270036,-1.4474482 -0.85369,-2.466002 C 13.46964,3.4356954 12.444894,2.5037591 12.444895,2.5037591 l -0.07423,0.1383981 -0.272192,0.3019595 -0.346426,-0.3648677 0.346426,0 L 12.259308,2.4031061 11.615949,2.2772895 11.281895,2.1514733 z M 3.8461259,2.3150345 3.7224027,2.6421572 c 0,0 -0.2166086,0.036366 -0.2721911,0.050327 C 2.7403769,3.3576613 1.3089548,4.8004591 0.97574709,7.5112538 0.98894063,7.5741032 1.2108206,7.9390292 1.2108206,7.9390292 l 0.5443833,0.3271217 0.5443813,0.1509801 0.2350744,0.2893781 0.3587977,0.2767963 0.2103295,-0.037745 0.148469,0.07549 0,0.050326 -0.1979586,0.5661735 -0.1608399,0.2390518 0.049489,0.113235 -0.1237222,0.4529393 0.4577758,0.855551 0.470148,0.415195 0.2103284,0.30196 -0.024746,0.629081 0.1484679,0.352287 -0.1484679,0.67941 c 0,0 -0.019811,-0.0056 0,0.06291 0.019988,0.06853 0.8270507,0.529522 0.8784351,0.490683 0.051209,-0.03956 0.098979,-0.07549 0.098979,-0.07549 l -0.049489,-0.150981 0.2103287,-0.201305 0.074234,-0.213887 0.3340518,-0.113235 0.2598192,-0.654247 -0.074233,-0.176143 0.1732127,-0.276796 0.3959144,-0.08807 0.1979577,-0.478102 -0.049491,-0.591338 0.3093088,-0.440357 0.049489,-0.452939 C 6.3168632,10.102948 5.9004921,9.8830534 5.4792709,9.6627135 L 5.2689423,9.2475198 4.8853999,9.1594491 4.6750703,8.5932746 4.1678047,8.6561827 3.7224017,8.32906 3.2522529,8.7442535 l 0,0.062909 C 3.1114329,8.7658292 2.9446126,8.7597462 2.8192238,8.6813464 l -0.098978,-0.301959 0,-0.3271237 -0.3216799,0.037745 c 0.025887,-0.2083697 0.06054,-0.4207485 0.086605,-0.6290818 l -0.1855858,0 -0.1855847,0.2390518 -0.1732118,0.088072 -0.2598193,-0.1509809 -0.024745,-0.3271236 0.04949,-0.352285 0.3835414,-0.3019601 0.3093088,0 L 2.4604275,6.4795588 2.843969,6.5676298 3.1285316,6.932497 3.1780203,6.3285781 3.672914,5.9133853 3.8461259,5.4730269 4.2172963,5.3220476 4.415253,5.0200879 4.8854018,4.9320161 5.1204763,4.57973 c -0.2326763,0 -0.472546,0 -0.7052233,0 l 0.4454049,-0.2138879 0.309307,0 L 5.5658793,4.2274443 5.6401139,4.6174752 5.8133266,4.3406788 5.615369,4.2022808 5.6648596,4.0387201 5.5040187,3.8877395 5.3308048,3.8374132 5.3802955,3.6486888 5.2441994,3.3844746 4.9348905,3.5102908 4.9843801,3.2712399 4.6255827,3.0573516 4.3410204,3.5606172 4.3657663,3.7367603 4.0812032,3.8625768 3.9079904,4.2526078 3.821384,3.8877395 3.3388631,3.6864335 3.2522568,3.4096375 3.9079904,3.0321885 4.1925535,2.755392 4.2173002,2.4282694 4.0564593,2.3401977 3.8461298,2.315035 l -3.9e-6,-5e-7 z m 5.3077282,0.6039198 0,0.2013049 0.1113521,0.1258168 0,0.3019596 L 9.2033438,3.9506479 9.5250246,3.8877395 9.760098,3.6486888 9.5497694,3.4473819 C 9.4815603,3.2626763 9.4124355,3.0961113 9.3270669,2.9189543 l -0.1732128,0 z M 8.881662,3.3215656 8.6837063,3.3844746 8.7331959,3.7493421 8.9930152,3.6109428 8.881662,3.3215656 l 0,0 z m 3.625092,3.308973 0.296937,0.3522842 0.358798,0.7800638 0.2227,0.2516317 -0.11135,0.2642164 0.197958,0.2390499 c -0.09084,0.00611 -0.17882,0.012584 -0.272192,0.012584 -0.169621,-0.362459 -0.303864,-0.7279946 -0.43303,-1.1071857 l -0.222704,-0.2516326 -0.123722,-0.4529392 0.08661,-0.088071 0,-1.3e-6 z"
         id="path6534"
         style="opacity:0.4;fill:#000000;fill-opacity:1;fill-rule:nonzero;stroke:none" />
      <path
         inkscape:connector-curvature="0"
         d="M 14.500001,7.9997709 C 14.500001,11.589737 11.589636,14.5 8.0000818,14.5 4.4101984,14.5 1.5000001,11.589705 1.5000001,7.9997709 c 0,-3.5898006 2.9101983,-6.4997695 6.5000817,-6.4997695 3.5895542,0 6.4999192,2.9099689 6.4999192,6.4997695 l 0,0 z"
         id="path2451"
         style="opacity:0.4;fill:none;stroke:url(#linearGradient3029);stroke-width:1;stroke-miterlimit:4;stroke-opacity:1;stroke-dasharray:none" />
    </g>
    <g
       clip-path="url(#clipPath1093-6-9-0-8)"
       style="opacity:0.4;fill:#fbfbfb;fill-opacity:1;stroke:none;stroke-width:6.9211278;stroke-opacity:1"
       transform="matrix(-0.14572398,0,0,-0.14325683,42.281166,13.670742)"
       id="g1048-9-0-6">
      <path
         style="fill:#fbfbfb;fill-opacity:1;stroke:none;stroke-width:6.9211278;stroke-linecap:round;stroke-linejoin:round;stroke-opacity:1;paint-order:stroke fill markers"
         d="m 182.90279,25.861483 c 2.27001,11.278071 10.09164,15.346789 17.72959,24.080289 7.86423,8.992223 16.48386,11.773579 28.25427,9.116983 -10.76219,-2.470231 -18.13711,-10.937621 -21.24079,-18.098687 -2.70205,-6.234374 -10.4533,-38.8810968 3.03439,-60.710079 h 37.48727 25.99999 c -10.87784,0.8175 -15.69358,8.066406 -24.87646,14.5362769 -2.35518,1.866961 -4.68966,1.7573965 1.61031,2.5828165 4.45176,0.58326 9.07543,1.65396996 8.49468,1.96713996 -0.23125,0.12476 -1.49703,0.32251 -2.81284,0.43956 -5.3141,0.47276 -13.12774,2.21326004 -17.98295,4.00573004 -12.39345,4.575491 -17.47247,7.5945506 -21.12895,18.3450506 -0.38813,1.14114 -0.65143,2.0748 -0.58512,2.0748 2.71331,-4.1155 6.54206,-6.98351 9.75968,-8.2413 8,-4 31.53553,-8.5303296 41.53553,7.46967 5.29999,8.479988 11.75635,31.37208 11.80333,64.963692 0,0 -0.93263,3.29845 -3.46984,4.51202 -1.5429,0.73798 -4.26532,0.73798 -4.26532,0.73798 -10.80051,0 -31.82148,-0.0576 -31.75112,-0.12798 9.22902,-6.30758 20.17142,-17.772264 21.93476,-26.653204 0.73237,-3.928904 1.16192,-14.145 0.53829,-12.80204 -2.60645,5.612738 -3.7134,7.749209 -5.01277,9.674781 -0.84879,1.257845 -1.59837,2.287009 -1.66575,2.287009 -0.0674,0 0.40099,-1.467491 1.04081,-3.261086 1.57154,-4.405546 2.1865,-7.800489 2.17187,-11.990197 -0.0153,-4.29473 -0.69951,-7.07789 -2.75815,-11.214192 -5.00731,-10.060863 -13.15103,-14.630463 -21.0967,-11.837783 -4.27047,1.50095 -8.23416,4.852714 -9.40166,7.950205 -1.33626,3.545206 -0.79778,7.540175 1.41079,10.466564 3.14995,4.173746 8.66097,5.481985 13.35613,3.170574 5.45832,-2.687128 7.58739,-9.211441 4.79175,-14.683793 -0.67824,-1.327625 -2.71316,-3.848291 -3.87779,-4.487741 -0.34014,-0.18674 -0.4235,-0.33229 -0.19326,-0.33746 0.37522,-0.121207 1.33838,0.830081 2.47938,1.429661 4.14615,2.178747 7.39904,6.831153 8.96033,12.815449 1.26493,5.620362 1.07211,12.496266 -2.22819,15.942601 -13.27839,14.951258 -23.20978,19.505727 -44.17933,17.546737 -3.0012,-0.29505 -10.51899,-1.59818 -10.79137,-1.870561 -0.0641,-0.0641 2.07385,-0.1912 4.75081,-0.28264 4.92424,-0.1682 8.16982,-0.61529 12.79189,-1.76207 3.52095,-0.87358 3.68711,-1.03548 1.31299,-1.27934 -8.38807,-0.861598 -39.21729,-3.600413 -35.8943,-10.991975 l 0.0268,-1.161261 v -33 l -0.1327,-27.10914071 c 2.1327,18.10914071 3.32056,21.35189071 4.06971,25.78694071 z"
         id="path927-3-1-2-1"
         inkscape:connector-curvature="0"
         sodipodi:nodetypes="cscsccccsccscccscssccscsscssssssccscccsssssccccc" />
    </g>
  </g>
</svg>
