<?xml version="1.0" encoding="UTF-8" standalone="no"?>
<!-- Created with Inkscape (http://www.inkscape.org/) -->

<svg
   xmlns:dc="http://purl.org/dc/elements/1.1/"
   xmlns:cc="http://creativecommons.org/ns#"
   xmlns:rdf="http://www.w3.org/1999/02/22-rdf-syntax-ns#"
   xmlns:svg="http://www.w3.org/2000/svg"
   xmlns="http://www.w3.org/2000/svg"
   xmlns:xlink="http://www.w3.org/1999/xlink"
   xmlns:sodipodi="http://sodipodi.sourceforge.net/DTD/sodipodi-0.dtd"
   xmlns:inkscape="http://www.inkscape.org/namespaces/inkscape"
   version="1.1"
   width="64"
   height="64"
   id="svg3759"
   inkscape:version="0.92.2 5c3e80d, 2017-08-06"
   sodipodi:docname="64.svg">
  <metadata
     id="metadata100981">
    <rdf:RDF>
      <cc:Work
         rdf:about="">
        <dc:format>image/svg+xml</dc:format>
        <dc:type
           rdf:resource="http://purl.org/dc/dcmitype/StillImage" />
        <dc:title />
      </cc:Work>
    </rdf:RDF>
  </metadata>
  <sodipodi:namedview
     pagecolor="#ffffff"
     bordercolor="#666666"
     borderopacity="1"
     objecttolerance="10"
     gridtolerance="10"
     guidetolerance="10"
     inkscape:pageopacity="0"
     inkscape:pageshadow="2"
     inkscape:window-width="1366"
     inkscape:window-height="744"
     id="namedview100979"
     showgrid="false"
     inkscape:zoom="1"
     inkscape:cx="-58.791302"
     inkscape:cy="131.22241"
     inkscape:window-x="0"
     inkscape:window-y="24"
     inkscape:window-maximized="1"
     inkscape:current-layer="svg3759"
     inkscape:snap-global="false">
    <inkscape:grid
       type="xygrid"
       id="grid3204"
       empspacing="5"
       visible="true"
       enabled="true"
       snapvisiblegridlinesonly="true" />
  </sodipodi:namedview>
  <defs
     id="defs3761">
    <linearGradient
       inkscape:collect="always"
       id="linearGradient1140">
      <stop
         style="stop-color:#ffffff;stop-opacity:1;"
         offset="0"
         id="stop1136" />
      <stop
         style="stop-color:#ffffff;stop-opacity:0;"
         offset="1"
         id="stop1138" />
    </linearGradient>
    <linearGradient
       id="linearGradient4873">
      <stop
         id="stop4875"
         style="stop-color:#ffffff;stop-opacity:1"
         offset="0" />
      <stop
         id="stop4877"
         style="stop-color:#ffffff;stop-opacity:0"
         offset="1" />
    </linearGradient>
    <linearGradient
       id="linearGradient8838">
      <stop
         id="stop8840"
         style="stop-color:#000000;stop-opacity:1"
         offset="0" />
      <stop
         id="stop8842"
         style="stop-color:#000000;stop-opacity:0"
         offset="1" />
    </linearGradient>
    <linearGradient
       inkscape:collect="always"
       xlink:href="#linearGradient4873"
       id="linearGradient3016"
       gradientUnits="userSpaceOnUse"
       gradientTransform="matrix(3.0301298,0,0,3.0300605,-156.47529,42.637643)"
       x1="62.200409"
       y1="-12.489107"
       x2="62.200409"
       y2="-1.4615115" />
    <radialGradient
       inkscape:collect="always"
       xlink:href="#linearGradient2867-449-88-871-390-598-476-591-434-148-6"
       id="radialGradient3020"
       gradientUnits="userSpaceOnUse"
       gradientTransform="matrix(0,4.9689472,-4.9689145,0,-11.356904,-292.07759)"
       cx="61.240059"
       cy="-8.7256308"
       fx="61.240059"
       fy="-8.7256308"
       r="9.7552834" />
    <linearGradient
       inkscape:collect="always"
       xlink:href="#linearGradient3707-319-631-2"
       id="linearGradient3022"
       gradientUnits="userSpaceOnUse"
       gradientTransform="matrix(1.3820728,0,0,1.3820497,-1.719328,-0.61915985)"
       x1="20"
       y1="43"
       x2="20"
       y2="2.6887112" />
    <radialGradient
       inkscape:collect="always"
       xlink:href="#linearGradient8838"
       id="radialGradient3025"
       gradientUnits="userSpaceOnUse"
       gradientTransform="matrix(2.4417346,0,0,0.90767357,-120.9136,51.365558)"
       cx="62.625"
       cy="4.625"
       fx="62.625"
       fy="4.625"
       r="10.625" />
    <linearGradient
       id="linearGradient2867-449-88-871-390-598-476-591-434-148-6">
      <stop
         offset="0"
         style="stop-color:#e29ffc;stop-opacity:1"
         id="stop4627-6" />
      <stop
         offset="0.26238"
         style="stop-color:#ad65d6;stop-opacity:1"
         id="stop4629-2" />
      <stop
         offset="0.704952"
         style="stop-color:#4c158a;stop-opacity:0.94618833"
         id="stop4631-9" />
      <stop
         offset="1"
         style="stop-color:#273567;stop-opacity:1"
         id="stop4633-1" />
    </linearGradient>
    <linearGradient
       id="linearGradient3707-319-631-2">
      <stop
         offset="0"
         style="stop-color:#6d255f;stop-opacity:1"
         id="stop4637-7" />
      <stop
         offset="0.5"
         style="stop-color:#73416c;stop-opacity:1"
         id="stop4639-0" />
      <stop
         offset="1"
         style="stop-color:#b361b5;stop-opacity:1"
         id="stop4641-9" />
    </linearGradient>
    <clipPath
       id="clipPath1093-6-9-8"
       clipPathUnits="userSpaceOnUse">
      <path
         inkscape:connector-curvature="0"
         style="opacity:1;fill:#000000;fill-opacity:1;stroke:none;stroke-width:1.00000095;stroke-miterlimit:4;stroke-dasharray:none;stroke-opacity:1"
         id="path1095-2-2-7"
         d="m 284.57939,38.359911 c 0,27.240157 -21.76826,49.322717 -48.61652,49.322717 -26.85073,0 -48.6177,-22.082814 -48.6177,-49.322717 0,-27.238891 21.76697,-49.319315 48.6177,-49.319315 26.84826,0 48.61652,22.080424 48.61652,49.319315 z" />
    </clipPath>
    <radialGradient
       inkscape:collect="always"
       xlink:href="#linearGradient1140"
       id="radialGradient1142"
       cx="233.66495"
       cy="38.361612"
       fx="233.66495"
       fy="38.361612"
       r="46.319775"
       gradientTransform="matrix(1,0,0,1.0647939,0,-2.4856002)"
       gradientUnits="userSpaceOnUse" />
    <radialGradient
       inkscape:collect="always"
       xlink:href="#linearGradient1140"
       id="radialGradient1142-9"
       cx="233.66495"
       cy="38.36161"
       fx="233.66495"
       fy="38.36161"
       r="46.319775"
       gradientTransform="matrix(0,-1.0189878,1.0449525,0,195.23175,280.50612)"
       gradientUnits="userSpaceOnUse" />
    <clipPath
       id="clipPath1093-6-9-8-2"
       clipPathUnits="userSpaceOnUse">
      <path
         inkscape:connector-curvature="0"
         style="opacity:1;fill:#000000;fill-opacity:1;stroke:none;stroke-width:1.00000095;stroke-miterlimit:4;stroke-dasharray:none;stroke-opacity:1"
         id="path1095-2-2-7-3"
         d="m 284.57939,38.359911 c 0,27.240157 -21.76826,49.322717 -48.61652,49.322717 -26.85073,0 -48.6177,-22.082814 -48.6177,-49.322717 0,-27.238891 21.76697,-49.319315 48.6177,-49.319315 26.84826,0 48.61652,22.080424 48.61652,49.319315 z" />
    </clipPath>
    <radialGradient
       r="46.319775"
       fy="38.36161"
       fx="233.66495"
       cy="38.36161"
       cx="233.66495"
       gradientTransform="matrix(0,-1.0189878,1.0449525,0,195.23175,280.50612)"
       gradientUnits="userSpaceOnUse"
       id="radialGradient1168"
       xlink:href="#linearGradient1140"
       inkscape:collect="always" />
  </defs>
  <g
     id="g4094">
    <path
       d="m 57.94347,55.563553 a 25.943432,9.6440453 0 0 1 -51.8868639,0 25.943432,9.6440453 0 1 1 51.8868639,0 z"
       id="path8836"
       style="opacity:0.4;fill:url(#radialGradient3025);fill-opacity:1;fill-rule:evenodd;stroke:none;stroke-width:0.99999988;marker:none;visibility:visible;display:inline;overflow:visible"
       inkscape:connector-curvature="0" />
    <path
       d="m 59.500073,31.99883 c 0,15.188432 -12.313093,27.501179 -27.499692,27.501179 C 16.812395,59.500009 4.5,47.187122 4.5,31.99883 4.5,16.811092 16.812395,4.4995984 32.000381,4.4995984 c 15.186599,0 27.499692,12.3114936 27.499692,27.4992316 l 0,0 z"
       id="path6495"
       style="fill:url(#radialGradient3020);fill-opacity:1.0;fill-rule:nonzero;stroke:url(#linearGradient3022);stroke-width:1;stroke-miterlimit:4;stroke-dasharray:none"
       inkscape:connector-curvature="0" />
    <path
       sodipodi:nodetypes="cccccccccccccccccccccccccccccccccccccccccccccccccccccccccccccccccccccccccccccccccccccccccccccccccccccccccccccccccccccccccccccccccccccccccccccccccccccccccccccccccccccccccccccccccccccccccccccccccccccccccccccccccccccccccccccccccccccccccccccccccccccccccccccccccccccccccccccccccccccccccccccccccccccccccccccc"
       d="M 32.4649,5.5124273 29.133385,5.8938439 25.468717,6.8950615 C 25.780882,6.7855967 26.097122,6.6661232 26.420581,6.5613219 L 25.992239,5.79849 l -1.427791,0.2638083 -0.713897,0.6420555 -1.094639,0.1430309 -0.999456,0.47677 -0.47593,0.2383863 -0.142781,0.1907072 -0.713896,0.1430312 -0.428333,0.905864 -0.469425,-0.7374685 -0.292069,0.1971083 0.0952,1.1601616 -0.904269,0.7628312 -0.523526,1.382636 1.094646,0 0.428336,-0.905865 0.14278,-0.333738 C 20.048494,9.9868415 20.504772,9.6071155 20.994983,9.2789125 L 22.137215,9.66033 c 0.743683,0.506144 1.492588,1.02029 2.236881,1.525665 L 25.46872,10.184776 24.2313,9.66033 23.660184,8.5160821 21.566085,8.2776958 21.518486,8.0393115 22.422752,8.2300187 22.946279,7.7055712 24.088513,7.4671859 C 24.35882,7.3354953 24.624724,7.2406362 24.897594,7.1334476 l -0.713895,0.6674777 2.570028,1.7640505 0,1.0488942 -0.999459,1.001219 1.332607,2.669917 0.904269,-0.524451 1.142236,-1.76405 c 1.605897,-0.497372 3.053233,-1.076131 4.568938,-1.764052 l -0.09519,0.66748 0.761487,0.524447 1.332606,-0.905863 -0.666304,-0.762834 -0.904269,0.524449 -0.285559,-0.09535 c 0.06559,-0.03002 0.124498,-0.06483 0.19037,-0.09535 l 1.332618,-3.4327513 z m -13.040504,5.1491197 1.094639,0.762833 0.90427,0 0,-0.905863 -1.094639,-0.476771 z m 25.271927,-0.619801 -1.951315,0.476771 -1.237417,0.81051 0,0.715155 -1.951318,1.239601 0.380747,1.859408 1.142233,-0.810511 0.713895,0.810511 0.809086,0.476771 0.523521,-1.382635 -0.285559,-0.81051 0.285559,-0.572126 1.142234,-1.048894 0.523524,0 -0.523524,1.144251 0,1.048894 c 0.470797,-0.128378 0.946002,-0.178376 1.427792,-0.238387 l -1.332606,0.953545 -0.09519,0.57212 -1.522979,1.287283 -1.570573,-0.381419 0,-0.905864 -0.713895,0.476771 0.333152,0.810512 -1.142233,0 -0.618711,1.048894 -0.761491,0.858189 -1.380197,0.286058 0.809081,0.810513 0.190373,0.810508 -0.999454,0 -1.332608,0.715159 0,2.097785 0.618712,0 0.571115,0.619804 1.285014,-0.619804 0.475929,-1.287281 0.951865,-0.572122 0.190372,-0.476769 1.522976,-0.381419 0.856674,0.95354 0.904273,0.47677 -0.523527,1.048899 0.809087,-0.238386 0.428336,-1.048898 -1.047045,-1.191925 0.428334,0 1.047047,0.858188 0.190373,1.14425 0.904269,1.048895 0.237965,-1.525665 0.475932,-0.238387 c 0.5066,0.526839 0.905927,1.171128 1.332605,1.764052 l 1.570573,0.09537 0.904266,0.572125 -0.428335,0.619802 -0.90427,0.81051 -1.332608,0 -1.760941,-0.572123 -0.90427,0.09536 -0.666302,0.762835 -1.903726,-1.907083 -1.332605,-0.381415 -1.951318,0.238384 -1.71335,0.476769 c -0.977398,1.110022 -1.97808,2.232269 -2.903182,3.385075 l -1.094638,2.669911 0.523524,0.572125 -0.951862,1.382636 1.04705,2.431529 c 0.871254,0.987312 1.747628,1.967959 2.617618,2.955975 l 1.285014,-1.096573 0.523525,0.66748 1.380201,-0.905862 0.475928,0.524446 1.380201,0 0.809083,0.905863 -0.475932,1.621021 0.95186,1.096574 -0.04761,1.907079 0.713895,1.382634 -0.523522,1.191927 c -0.05103,0.854862 -0.0952,1.671885 -0.0952,2.526884 0.419913,1.158312 0.840911,2.313779 1.237422,3.480423 l 0.285558,1.859404 0,0.953542 0.761488,0 1.094641,-0.715157 1.332607,0 1.998911,-2.240819 -0.237967,-0.762834 1.332609,-1.191926 -0.999456,-1.096572 1.189823,-0.95354 1.142239,-0.715159 0.523523,-0.572123 -0.333153,-1.287279 0,-3.242039 0.904271,-2.002435 1.142234,-1.239605 1.237421,-3.051329 0,-0.810511 c -0.615779,0.07771 -1.206009,0.147767 -1.808536,0.190711 l 1.237417,-1.239607 1.713353,-1.144247 0.904271,-1.048897 0,-1.144247 c -0.205101,-0.387458 -0.412218,-0.80445 -0.618717,-1.191916 l -0.809083,0.953539 -0.618709,-0.715153 -0.904269,-0.715157 0,-1.477989 1.047048,1.191926 1.189828,-0.143029 c 0.536769,0.488147 1.052179,0.922201 1.522978,1.477988 l 0.8201,-0.94415 c 0.01919,-0.962293 -1.128089,-5.990175 -3.432822,-9.730758 -2.42072,-4.175789 -5.903214,-6.996224 -5.90321,-6.976605 l -0.479151,0.583107 -1.04705,1.144251 -1.332605,-1.382636 1.332605,0 0.618731,-0.667487 -2.47483,-0.476769 z m -28.603444,0.619801 -0.475932,1.239604 c 0,0 -1.839966,0.353538 -2.053775,0.406436 -2.758465,2.555528 -7.8849814,8.59083 -8.5118887,18.044581 0.050752,0.238165 0.9042686,1.621016 0.9042686,1.621016 l 2.094096,1.239606 2.0940961,0.572124 0.90427,1.096572 1.380199,1.048895 0.809079,-0.14303 0.571121,0.286063 0,0.190705 -0.761492,2.145469 -0.618708,0.905865 0.19037,0.429091 -0.47593,1.716377 1.760945,3.242036 1.808536,1.573343 0.809082,1.14425 -0.09517,2.383852 0.571118,1.334955 -0.571118,2.574563 c 0,0 -0.07621,-0.02117 0,0.238385 0.07689,0.259679 3.019649,2.06051 3.217312,1.913337 0.196986,-0.14992 0.542542,-0.339995 0.542542,-0.339995 l -0.190372,-0.572125 0.809083,-0.762831 0.285557,-0.810512 1.285016,-0.429095 0.999452,-2.479204 -0.285557,-0.667478 0.666302,-1.048896 1.52298,-0.333739 0.761492,-1.811729 -0.190377,-2.240821 1.189828,-1.668693 0.190371,-1.716374 c -1.632499,-0.810975 -3.234168,-1.644248 -4.854491,-2.479208 l -0.809085,-1.57334 -1.475384,-0.333741 -0.809082,-2.14547 -1.951317,0.238386 -1.713354,-1.239601 -1.808536,1.573343 0,0.238385 C 13.266721,35.106273 12.625005,35.083225 12.14267,34.786133 l -0.380744,-1.144249 0,-1.239603 -1.237421,0.14303 c 0.09959,-0.789597 0.232877,-1.594392 0.33315,-2.383851 l -0.713897,0 -0.7138957,0.905864 -0.666304,0.333739 -0.9994549,-0.572124 -0.095186,-1.239603 0.1903726,-1.334958 1.4753853,-1.144251 1.1898267,0 0.237965,-0.667476 1.475388,0.333737 1.094641,1.382635 0.190372,-2.288499 1.903722,-1.573341 0.666303,-1.668695 1.427794,-0.572125 0.761486,-1.14425 1.808541,-0.333741 0.90427,-1.334957 -2.712811,0 1.713357,-0.81051 1.189824,0 1.522981,-0.524446 0.285557,1.477988 0.666305,-1.048895 -0.761491,-0.524449 0.190373,-0.619799 -0.618711,-0.572126 -0.666304,-0.190707 0.190373,-0.715155 -0.523522,-1.001216 -1.18983,0.476768 0.190373,-0.905862 -1.380201,-0.810512 -1.094639,1.907081 0.09518,0.667478 -1.094638,0.476772 -0.666305,1.477988 -0.33315,-1.382635 -1.856131,-0.762832 -0.333153,-1.048895 2.522434,-1.43031 1.09464,-1.048897 0.09517,-1.239604 -0.618711,-0.333738 z m 20.417436,2.288501 0,0.762828 0.428336,0.476772 0,1.144252 -0.237964,1.525663 1.237419,-0.238385 0.904272,-0.905862 -0.809084,-0.762836 C 37.770915,14.252554 37.50501,13.62137 37.176618,12.950048 Z m -1.04705,1.525661 -0.761488,0.238391 0.190372,1.382631 0.999454,-0.524452 z m 13.944778,12.539066 1.142233,1.334956 1.380201,2.955977 0.856673,0.953539 -0.428335,1.001223 0.761487,0.905862 c -0.349448,0.02317 -0.687873,0.04768 -1.047045,0.04768 -0.652491,-1.373509 -1.168885,-2.758671 -1.665761,-4.19558 l -0.856675,-0.953539 -0.475933,-1.716374 z"
       id="path6534"
       style="opacity:0.4;fill:#000000;fill-opacity:1;fill-rule:nonzero;stroke:none"
       inkscape:connector-curvature="0" />
    <path
       d="m 58.500001,31.998659 c 0,14.636017 -11.86533,26.500939 -26.499668,26.500939 -14.635676,0 -26.5003324,-11.865055 -26.5003324,-26.500939 0,-14.635339 11.8646564,-26.4990584 26.5003324,-26.4990584 14.634338,0 26.499668,11.8637194 26.499668,26.4990584 l 0,0 z"
       id="path8655"
       style="opacity:0.4;fill:none;stroke:url(#linearGradient3016);stroke-width:1.0000006;stroke-miterlimit:4;stroke-opacity:1;stroke-dasharray:none"
       inkscape:connector-curvature="0" />
  </g>
  <g
     clip-path="url(#clipPath1093-6-9-8)"
     style="opacity:0.5;fill:url(#radialGradient1142);fill-opacity:1;stroke:none;stroke-width:1.81379163;stroke-opacity:1"
     transform="matrix(-0.55654096,0,0,-0.54617037,163.43355,52.896258)"
     id="g1048-9-0">
    <path
       style="fill:url(#radialGradient1142);fill-opacity:1;stroke:none;stroke-width:1.81379163;stroke-linecap:round;stroke-linejoin:round;stroke-opacity:1;paint-order:stroke fill markers"
       d="m 182.90279,25.861483 c 2.27001,11.278071 10.09164,15.346789 17.72959,24.080289 7.86423,8.992223 16.48386,11.773579 28.25427,9.116983 -10.76219,-2.470231 -18.13711,-10.937621 -21.24079,-18.098687 -2.70205,-6.234374 -10.4533,-38.8810968 3.03439,-60.710079 h 37.48727 25.99999 c -10.87784,0.8175 -15.69358,8.066406 -24.87646,14.5362769 -2.35518,1.866961 -4.68966,1.7573965 1.61031,2.5828165 4.45176,0.58326 9.07543,1.65396996 8.49468,1.96713996 -0.23125,0.12476 -1.49703,0.32251 -2.81284,0.43956 -5.3141,0.47276 -13.12774,2.21326004 -17.98295,4.00573004 -12.39345,4.575491 -17.47247,7.5945506 -21.12895,18.3450506 -0.38813,1.14114 -0.65143,2.0748 -0.58512,2.0748 2.71331,-4.1155 6.54206,-6.98351 9.75968,-8.2413 8,-4 31.53553,-8.5303296 41.53553,7.46967 5.29999,8.479988 11.75635,31.37208 11.80333,64.963692 0,0 -0.93263,3.29845 -3.46984,4.51202 -1.5429,0.73798 -4.26532,0.73798 -4.26532,0.73798 -10.80051,0 -31.82148,-0.0576 -31.75112,-0.12798 9.22902,-6.30758 20.17142,-17.772264 21.93476,-26.653204 0.73237,-3.928904 1.16192,-14.145 0.53829,-12.80204 -2.60645,5.612738 -3.7134,7.749209 -5.01277,9.674781 -0.84879,1.257845 -1.59837,2.287009 -1.66575,2.287009 -0.0674,0 0.40099,-1.467491 1.04081,-3.261086 1.57154,-4.405546 2.1865,-7.800489 2.17187,-11.990197 -0.0153,-4.29473 -0.69951,-7.07789 -2.75815,-11.214192 -5.00731,-10.060863 -13.15103,-14.630463 -21.0967,-11.837783 -4.27047,1.50095 -8.23416,4.852714 -9.40166,7.950205 -1.33626,3.545206 -0.79778,7.540175 1.41079,10.466564 3.14995,4.173746 8.66097,5.481985 13.35613,3.170574 5.45832,-2.687128 7.58739,-9.211441 4.79175,-14.683793 -0.67824,-1.327625 -2.71316,-3.848291 -3.87779,-4.487741 -0.34014,-0.18674 -0.4235,-0.33229 -0.19326,-0.33746 0.37522,-0.121207 1.33838,0.830081 2.47938,1.429661 4.14615,2.178747 7.39904,6.831153 8.96033,12.815449 1.26493,5.620362 1.07211,12.496266 -2.22819,15.942601 -13.27839,14.951258 -23.20978,19.505727 -44.17933,17.546737 -3.0012,-0.29505 -10.51899,-1.59818 -10.79137,-1.870561 -0.0641,-0.0641 2.07385,-0.1912 4.75081,-0.28264 4.92424,-0.1682 8.16982,-0.61529 12.79189,-1.76207 3.52095,-0.87358 3.68711,-1.03548 1.31299,-1.27934 -8.38807,-0.861598 -39.21729,-3.600413 -35.8943,-10.991975 l 0.0268,-1.161261 v -33 l -0.1327,-27.10914071 c 2.1327,18.10914071 3.32056,21.35189071 4.06971,25.78694071 z"
       id="path927-3-1-2"
       inkscape:connector-curvature="0"
       sodipodi:nodetypes="cscsccccsccscccscssccscsscssssssccscccsssssccccc" />
  </g>
  <g
     clip-path="url(#clipPath1093-6-9-8-2)"
     style="opacity:0.5;fill:url(#radialGradient1142-9);fill-opacity:1;stroke:none;stroke-width:1.81379163;stroke-opacity:1"
     transform="matrix(0,-0.55654096,0.54617037,0,10.229409,162.90828)"
     id="g1048-9-0-7">
    <path
       style="fill:url(#radialGradient1168);fill-opacity:1;stroke:none;stroke-width:1.81379163;stroke-linecap:round;stroke-linejoin:round;stroke-opacity:1;paint-order:stroke fill markers"
       d="m 182.90279,25.861483 c 2.27001,11.278071 10.09164,15.346789 17.72959,24.080289 7.86423,8.992223 16.48386,11.773579 28.25427,9.116983 -10.76219,-2.470231 -18.13711,-10.937621 -21.24079,-18.098687 -2.70205,-6.234374 -10.4533,-38.8810968 3.03439,-60.710079 h 37.48727 25.99999 c -10.87784,0.8175 -15.69358,8.066406 -24.87646,14.5362769 -2.35518,1.866961 -4.68966,1.7573965 1.61031,2.5828165 4.45176,0.58326 9.07543,1.65396996 8.49468,1.96713996 -0.23125,0.12476 -1.49703,0.32251 -2.81284,0.43956 -5.3141,0.47276 -13.12774,2.21326004 -17.98295,4.00573004 -12.39345,4.575491 -17.47247,7.5945506 -21.12895,18.3450506 -0.38813,1.14114 -0.65143,2.0748 -0.58512,2.0748 2.71331,-4.1155 6.54206,-6.98351 9.75968,-8.2413 8,-4 31.53553,-8.5303296 41.53553,7.46967 5.29999,8.479988 11.75635,31.37208 11.80333,64.963692 0,0 -0.93263,3.29845 -3.46984,4.51202 -1.5429,0.73798 -4.26532,0.73798 -4.26532,0.73798 -10.80051,0 -31.82148,-0.0576 -31.75112,-0.12798 9.22902,-6.30758 20.17142,-17.772264 21.93476,-26.653204 0.73237,-3.928904 1.16192,-14.145 0.53829,-12.80204 -2.60645,5.612738 -3.7134,7.749209 -5.01277,9.674781 -0.84879,1.257845 -1.59837,2.287009 -1.66575,2.287009 -0.0674,0 0.40099,-1.467491 1.04081,-3.261086 1.57154,-4.405546 2.1865,-7.800489 2.17187,-11.990197 -0.0153,-4.29473 -0.69951,-7.07789 -2.75815,-11.214192 -5.00731,-10.060863 -13.15103,-14.630463 -21.0967,-11.837783 -4.27047,1.50095 -8.23416,4.852714 -9.40166,7.950205 -1.33626,3.545206 -0.79778,7.540175 1.41079,10.466564 3.14995,4.173746 8.66097,5.481985 13.35613,3.170574 5.45832,-2.687128 7.58739,-9.211441 4.79175,-14.683793 -0.67824,-1.327625 -2.71316,-3.848291 -3.87779,-4.487741 -0.34014,-0.18674 -0.4235,-0.33229 -0.19326,-0.33746 0.37522,-0.121207 1.33838,0.830081 2.47938,1.429661 4.14615,2.178747 7.39904,6.831153 8.96033,12.815449 1.26493,5.620362 1.07211,12.496266 -2.22819,15.942601 -13.27839,14.951258 -23.20978,19.505727 -44.17933,17.546737 -3.0012,-0.29505 -10.51899,-1.59818 -10.79137,-1.870561 -0.0641,-0.0641 2.07385,-0.1912 4.75081,-0.28264 4.92424,-0.1682 8.16982,-0.61529 12.79189,-1.76207 3.52095,-0.87358 3.68711,-1.03548 1.31299,-1.27934 -8.38807,-0.861598 -39.21729,-3.600413 -35.8943,-10.991975 l 0.0268,-1.161261 v -33 l -0.1327,-27.10914071 c 2.1327,18.10914071 3.32056,21.35189071 4.06971,25.78694071 z"
       id="path927-3-1-2-5"
       inkscape:connector-curvature="0"
       sodipodi:nodetypes="cscsccccsccscccscssccscsscssssssccscccsssssccccc" />
  </g>
</svg>
